<svg xmlns="http://www.w3.org/2000/svg" width="1200" height="1200" viewBox="0 0 1200 1200" role="img" aria-labelledby="title desc">
  <title id="title">대출이자 계산기 대표 이미지</title>
  <desc id="desc">원리금균등, 원금균등, 만기일시상환의 월 납입액과 총이자를 비교하는 대출이자 계산기</desc>
  <defs>
    <linearGradient id="bg" x1="0" x2="1" y1="0" y2="1">
      <stop offset="0%" stop-color="#eef4ff"/>
      <stop offset="54%" stop-color="#f5edf7"/>
      <stop offset="100%" stop-color="#e9f6ee"/>
    </linearGradient>
  </defs>
  <g transform="translate(0 285)">
  <rect width="1200" height="630" rx="36" fill="url(#bg)"/>
  <g transform="translate(90 82)">
    <rect width="132" height="132" rx="30" fill="#fff" opacity="0.9"/>
    <path d="M34 96h64v14H34zM40 46h52c10 0 18 8 18 18s-8 18-18 18H40z" fill="#4c6fdc"/>
    <path d="M53 59v10h39c3 0 5-2 5-5s-2-5-5-5z" fill="#fff"/>
  </g>
  <text x="90" y="292" font-family="Apple SD Gothic Neo, Noto Sans KR, Segoe UI, sans-serif" font-size="76" font-weight="800" fill="#203047">대출이자 계산기</text>
  <text x="90" y="370" font-family="Apple SD Gothic Neo, Noto Sans KR, Segoe UI, sans-serif" font-size="34" font-weight="650" fill="#526070">원리금균등 · 원금균등 · 만기일시상환 비교</text>
  <g transform="translate(90 445)">
    <rect width="292" height="64" rx="18" fill="#ffffff" opacity="0.9"/>
    <text x="32" y="42" font-family="Apple SD Gothic Neo, Noto Sans KR, Segoe UI, sans-serif" font-size="28" font-weight="750" fill="#3854a8">월 납입액·총이자</text>
  </g>
  </g>
</svg>
